<svg width="20" height="20" viewBox="0 0 20 20" fill="none" xmlns="http://www.w3.org/2000/svg">
<mask id="mask0_165_6794" style="mask-type:luminance" maskUnits="userSpaceOnUse" x="2" y="2" width="15" height="15">
<path d="M15.9 9.94444V15.1556C15.9 15.353 15.8216 15.5423 15.682 15.682C15.5423 15.8216 15.353 15.9 15.1556 15.9H3.24444C3.04701 15.9 2.85765 15.8216 2.71804 15.682C2.57843 15.5423 2.5 15.353 2.5 15.1556V3.24444C2.5 3.04701 2.57843 2.85765 2.71804 2.71804C2.85765 2.57843 3.04701 2.5 3.24444 2.5H8.45556" fill="#C2CCDE" fill-opacity="0.25"/>
<path d="M15.9 9.94444V15.1556C15.9 15.353 15.8216 15.5423 15.682 15.682C15.5423 15.8216 15.353 15.9 15.1556 15.9H3.24444C3.04701 15.9 2.85765 15.8216 2.71804 15.682C2.57843 15.5423 2.5 15.353 2.5 15.1556V3.24444C2.5 3.04701 2.57843 2.85765 2.71804 2.71804C2.85765 2.57843 3.04701 2.5 3.24444 2.5H8.45556" stroke="white" stroke-linecap="round" stroke-linejoin="round"/>
<path d="M5.47754 10.2124V12.9222H8.20109L15.8998 5.2202L13.1807 2.5L5.47754 10.2124Z" fill="#C2CCDE" fill-opacity="0.25" stroke="white" stroke-linejoin="round"/>
</mask>
<g mask="url(#mask0_165_6794)">
<path d="M0.266602 0.266602H18.1333V18.1333H0.266602V0.266602Z" fill="#B7083C"/>
</g>
</svg>
