<svg width="24" height="25" viewBox="0 0 24 25" fill="none" xmlns="http://www.w3.org/2000/svg">
<path d="M10 18.1211H14" stroke="black" stroke-width="1.5" stroke-linecap="round" stroke-linejoin="round"/>
<path d="M2.35139 13.3346C1.99837 11.0373 1.82186 9.88872 2.25617 8.87047C2.69047 7.85221 3.65403 7.15552 5.58114 5.76215L7.02099 4.72109C9.41829 2.98776 10.6169 2.12109 12 2.12109C13.3831 2.12109 14.5817 2.98776 16.979 4.72109L18.4189 5.76215C20.346 7.15552 21.3095 7.85221 21.7438 8.87047C22.1781 9.88872 22.0016 11.0373 21.6486 13.3346L21.3476 15.2935C20.8471 18.55 20.5969 20.1783 19.429 21.1497C18.2611 22.1211 16.5537 22.1211 13.1388 22.1211H10.8612C7.44633 22.1211 5.73891 22.1211 4.571 21.1497C3.40309 20.1783 3.15287 18.55 2.65243 15.2935L2.35139 13.3346Z" stroke="black" stroke-width="1.5" stroke-linejoin="round"/>
</svg>
