<svg width="24" height="25" viewBox="0 0 24 25" fill="none" xmlns="http://www.w3.org/2000/svg">
<path d="M4.5795 8.72808L2 8.57526C3.849 3.82597 9.15764 1.12094 14.3334 2.46586C19.8461 3.89831 23.1205 9.38262 21.647 14.7154C20.4283 19.1262 16.3433 22.0518 11.8479 22.1211" stroke="black" stroke-width="1.5" stroke-linecap="round" stroke-linejoin="round"/>
<path d="M12 22.1211C6.5 22.1211 2 17.1211 2 11.1211" stroke="black" stroke-width="1.5" stroke-linecap="round" stroke-linejoin="round" stroke-dasharray="0.5 3"/>
<path d="M13.6029 9.84286C13.2514 9.47376 12.3896 8.60646 11.0282 9.22221C9.66687 9.83796 9.45062 11.8191 11.5098 12.0296C12.4406 12.1247 13.0474 11.9192 13.6029 12.5005C14.1585 13.0818 14.2617 14.6985 12.8415 15.1341C11.4212 15.5698 10.501 14.8503 10.2535 14.6252M11.9068 8.14062V8.93165M11.9068 15.2682V16.1406" stroke="black" stroke-width="1.5" stroke-linecap="round" stroke-linejoin="round"/>
</svg>
