<svg width="24" height="25" viewBox="0 0 24 25" fill="none" xmlns="http://www.w3.org/2000/svg">
<path d="M6.57757 15.6027C5.1628 16.4451 1.45336 18.1652 3.71266 20.3177C4.81631 21.3691 6.04549 22.1211 7.59087 22.1211H16.4091C17.9545 22.1211 19.1837 21.3691 20.2873 20.3177C22.5466 18.1652 18.8372 16.4451 17.4224 15.6027C14.1048 13.6272 9.89519 13.6272 6.57757 15.6027Z" stroke="black" stroke-width="1.5" stroke-linecap="round" stroke-linejoin="round"/>
<path d="M16.5 6.62109C16.5 9.10637 14.4853 11.1211 12 11.1211C9.51472 11.1211 7.5 9.10637 7.5 6.62109C7.5 4.13581 9.51472 2.12109 12 2.12109C14.4853 2.12109 16.5 4.13581 16.5 6.62109Z" stroke="black" stroke-width="1.5"/>
</svg>
