<svg width="15" height="16" viewBox="0 0 15 16" fill="none" xmlns="http://www.w3.org/2000/svg">
<path fill-rule="evenodd" clip-rule="evenodd" d="M7.4925 0.723633C3.3525 0.723633 0 4.08363 0 8.22363C0 12.3636 3.3525 15.7236 7.4925 15.7236C11.64 15.7236 15 12.3636 15 8.22363C15 4.08363 11.64 0.723633 7.4925 0.723633ZM7.5 14.2236C4.185 14.2236 1.5 11.5386 1.5 8.22363C1.5 4.90863 4.185 2.22363 7.5 2.22363C10.815 2.22363 13.5 4.90863 13.5 8.22363C13.5 11.5386 10.815 14.2236 7.5 14.2236ZM6.75 4.47363H7.875V8.41113L11.25 10.4136L10.6875 11.3361L6.75 8.97363V4.47363Z" fill="white"/>
</svg>
