<svg width="17" height="17" viewBox="0 0 17 17" fill="none" xmlns="http://www.w3.org/2000/svg">
<path d="M15.9916 4.24C15.9888 4.20813 15.9822 4.17813 15.9728 4.14719C15.9634 4.11625 15.9522 4.08812 15.9372 4.06C15.9306 4.04781 15.9297 4.03281 15.9213 4.02062L14.0463 1.20812C13.9591 1.07875 13.8128 1 13.6562 1H3.34375C3.18719 1 3.04094 1.07875 2.95375 1.20906L1.07875 4.02156C1.07031 4.03375 1.06938 4.04781 1.06281 4.06094C1.04781 4.08906 1.03656 4.11719 1.02719 4.14812C1.01781 4.17906 1.01125 4.20906 1.00844 4.24094C1.00656 4.25406 1 4.26625 1 4.28125V15.0625C1 15.58 1.42094 16 1.9375 16H15.0625C15.5791 16 16 15.58 16 15.0625V4.28125C16 4.26625 15.9934 4.25406 15.9916 4.24ZM13.405 1.9375L14.6556 3.8125H10.3038L9.99063 1.9375H13.405ZM7.95906 1.9375H9.04L9.35312 3.8125H7.64688L7.95906 1.9375ZM7.5625 4.75H9.4375V6.44406L8.64813 6.17969C8.55156 6.14875 8.4475 6.14875 8.35187 6.17969L7.5625 6.44406V4.75ZM3.595 1.9375H7.00937L6.69625 3.8125H2.34438L3.595 1.9375ZM15.0625 15.5312V15.0625H1.9375V4.75H6.625V7.09375C6.625 7.24469 6.69719 7.38625 6.82 7.47344C6.94187 7.5625 7.09844 7.58313 7.24188 7.53906L8.5 7.11906L9.75813 7.53813C9.80688 7.55406 9.85656 7.5625 9.90625 7.5625C10.0037 7.5625 10.0994 7.5325 10.18 7.47344C10.3028 7.38625 10.375 7.24469 10.375 7.09375V4.75H15.0625V15.0625C15.0625 15.0625 15.0625 15.0625 15.0634 15.0625L15.0625 15.5312Z" fill="white" stroke="white" stroke-width="0.5"/>
</svg>
