<svg width="16" height="16" viewBox="0 0 16 16" fill="none" xmlns="http://www.w3.org/2000/svg">
<path d="M3.33333 8L6 5.33333M3.33333 8L6 10.6667M3.33333 8H10M6.66666 14C7.4546 14 8.23481 13.8448 8.96276 13.5433C9.69072 13.2417 10.3522 12.7998 10.9093 12.2426C11.4665 11.6855 11.9084 11.0241 12.2099 10.2961C12.5115 9.56815 12.6667 8.78793 12.6667 8C12.6667 7.21207 12.5115 6.43185 12.2099 5.7039C11.9084 4.97595 11.4665 4.31451 10.9093 3.75736C10.3522 3.20021 9.69072 2.75825 8.96276 2.45672C8.23481 2.15519 7.4546 2 6.66666 2" stroke="#414141" stroke-linecap="round" stroke-linejoin="round"/>
</svg>
