<svg width="16" height="16" viewBox="0 0 16 16" fill="none" xmlns="http://www.w3.org/2000/svg">
<path d="M6.67193 6.66634L4.95353 5.30163C4.75343 5.13396 4.65338 5.05012 4.67643 4.96351C4.69949 4.87691 4.82781 4.85454 5.08445 4.80981L5.86642 4.67352C6.16463 4.62154 6.20191 4.54499 6.06907 4.27339L5.24065 2.57956C5.07638 2.24369 4.99425 2.07575 5.0694 2.00473C5.14455 1.93371 5.30614 2.02656 5.62932 2.21226L7.0234 3.01333C7.2636 3.15134 7.2876 3.14404 7.41133 2.89524L7.97407 1.76346C8.12053 1.46888 8.1938 1.3216 8.29153 1.3337C8.38927 1.3458 8.4248 1.50655 8.4958 1.82804L8.94973 3.88201C9.0092 4.15122 9.07847 4.18818 9.33187 4.07896L10.8443 3.42716C11.1077 3.31364 11.2395 3.25688 11.3061 3.32233C11.3729 3.38778 11.3196 3.52156 11.2132 3.78912L10.0031 6.66634" stroke="#414141" stroke-linecap="round" stroke-linejoin="round"/>
<path d="M8.32943 6.66699L7.99609 5.66699" stroke="#414141" stroke-linecap="round" stroke-linejoin="round"/>
<path d="M4.49663 8.66632H1.33333M4.49663 8.66632C5.00889 9.00072 5.43774 9.04638 5.98349 9.32392C6.66031 9.71992 6.98173 10.3333 6.9788 11.3333C6.9788 11.9999 7.06533 12.6799 6.8546 13.0466C6.61329 13.4666 5.13103 13.3319 4.99779 13.3319M4.49663 8.66632C3.81397 8.22072 3.43968 7.39118 3.0214 6.71992C2.44013 5.71994 1.64387 5.39994 1.34129 5.33594M4.99779 13.3319C4.99779 14.0666 4.46033 14.6666 3.6641 14.6666C2.93422 14.6666 2.33705 14.0666 2.33705 13.3319M4.99779 13.3319C4.99779 12.6333 4.46033 11.9999 3.6641 11.9999C2.93422 11.9999 2.33705 12.5999 2.33705 13.3319M2.33705 13.3319H1.33333" stroke="#414141" stroke-linecap="round"/>
<path d="M11.5036 8.66434H14.667M11.5036 8.66434C10.9914 8.99881 10.5626 9.04447 10.0168 9.32214C9.33997 9.71827 9.01857 10.3317 9.02151 11.3321C9.02151 11.9989 8.93497 12.6791 9.14564 13.0459C9.38704 13.466 10.8692 13.3313 11.0025 13.3313M11.5036 8.66434C12.1863 8.21861 12.5606 7.38881 12.9789 6.71741C13.5602 5.71711 14.3564 5.39703 14.659 5.33301M11.0025 13.3313C11.0025 14.0661 11.54 14.6663 12.3362 14.6663C13.066 14.6663 13.6632 14.0661 13.6632 13.3313M11.0025 13.3313C11.0025 12.6324 11.54 11.9989 12.3362 11.9989C13.066 11.9989 13.6632 12.5991 13.6632 13.3313M13.6632 13.3313H14.667" stroke="#414141" stroke-linecap="round"/>
</svg>
