<svg width="16" height="16" viewBox="0 0 16 16" fill="none" xmlns="http://www.w3.org/2000/svg">
<path d="M4 6.35351C4 4.14438 5.79086 2.35352 8 2.35352C10.2091 2.35352 12 4.14438 12 6.35351V6.59445C12 7.47835 11.7238 8.34017 11.2101 9.05944L8.0079 13.5425C8.00403 13.5479 7.99597 13.5479 7.9921 13.5425L4.78994 9.05944C4.27618 8.34017 4 7.47835 4 6.59445V6.35351Z" fill="#C2CCDE" fill-opacity="0.25"/>
<path d="M8.78183 4.75387C8.28776 4.51594 7.71224 4.51594 7.21817 4.75387C6.7241 4.9918 6.36527 5.44177 6.24324 5.97639C6.12122 6.51102 6.24928 7.07211 6.59119 7.50085C6.93309 7.92959 7.45163 8.1793 8 8.1793C8.54837 8.1793 9.06691 7.92959 9.40881 7.50085C9.75072 7.07211 9.87878 6.51102 9.75676 5.97639C9.63474 5.44177 9.2759 4.9918 8.78183 4.75387Z" fill="#C2CCDE" fill-opacity="0.25"/>
<path d="M4 6.35351C4 4.14438 5.79086 2.35352 8 2.35352C10.2091 2.35352 12 4.14438 12 6.35351V6.59445C12 7.47835 11.7238 8.34017 11.2101 9.05944L8.0079 13.5425C8.00403 13.5479 7.99597 13.5479 7.9921 13.5425L4.78994 9.05944C4.27618 8.34017 4 7.47835 4 6.59445V6.35351Z" stroke="#5A5A5A" stroke-linecap="round" stroke-linejoin="round"/>
<path d="M8.78183 4.75387C8.28776 4.51594 7.71224 4.51594 7.21817 4.75387C6.7241 4.9918 6.36527 5.44177 6.24324 5.97639C6.12122 6.51102 6.24928 7.07211 6.59119 7.50085C6.93309 7.92959 7.45163 8.1793 8 8.1793C8.54837 8.1793 9.06691 7.92959 9.40881 7.50085C9.75072 7.07211 9.87878 6.51102 9.75676 5.97639C9.63474 5.44177 9.2759 4.9918 8.78183 4.75387Z" stroke="#5A5A5A" stroke-linecap="round" stroke-linejoin="round"/>
</svg>
