<svg width="16" height="16" viewBox="0 0 16 16" fill="none" xmlns="http://www.w3.org/2000/svg">
<path d="M8 2.40039L8.627 2.4356L9.24612 2.54079L9.84956 2.71464L10.4298 2.95496L10.9794 3.25874L11.4915 3.62213L11.9598 4.04059L12.3783 4.50885L12.7417 5.02101L13.0454 5.57064L13.2857 6.15083L13.4596 6.75427L13.5648 7.37339L13.6 8.00039L13.5648 8.62739L13.4596 9.24651L13.2857 9.84995L13.0454 10.4301L12.7417 10.9798L12.3783 11.4919L11.9598 11.9602L11.4915 12.3786L10.9794 12.742L10.4298 13.0458L9.84956 13.2861L9.24612 13.46L8.627 13.5652L8 13.6004L7.373 13.5652L6.75388 13.46L6.15044 13.2861L5.57025 13.0458L5.02062 12.742L4.50846 12.3786L4.0402 11.9602L3.62175 11.4919L3.25835 10.9798L2.95458 10.4301L2.71425 9.84995L2.54041 9.24651L2.43521 8.62739L2.4 8.00039L2.43521 7.37339L2.54041 6.75427L2.71425 6.15083L2.95458 5.57064L3.25835 5.02101L3.62175 4.50885L4.0402 4.04059L4.50846 3.62213L5.02062 3.25874L5.57025 2.95496L6.15044 2.71464L6.75388 2.54079L7.373 2.4356L8 2.40039Z" fill="#C2CCDE" fill-opacity="0.25"/>
<path d="M8 9.28039V9.20433C8 8.73761 8.24594 8.30542 8.64719 8.06704L8.99501 7.86039C9.4941 7.56388 9.8 7.02632 9.8 6.4458C9.8 5.53707 9.06333 4.80039 8.15459 4.80039H8C7.00589 4.80039 6.2 5.60628 6.2 6.60039V6.70203M8 10.7204V11.0404M8 2.40039L8.627 2.4356L9.24612 2.54079L9.84956 2.71464L10.4298 2.95496L10.9794 3.25874L11.4915 3.62213L11.9598 4.04059L12.3783 4.50885L12.7417 5.02101L13.0454 5.57064L13.2857 6.15083L13.4596 6.75427L13.5648 7.37339L13.6 8.00039L13.5648 8.62739L13.4596 9.24651L13.2857 9.84995L13.0454 10.4301L12.7417 10.9798L12.3783 11.4919L11.9598 11.9602L11.4915 12.3786L10.9794 12.742L10.4298 13.0458L9.84956 13.2861L9.24612 13.46L8.627 13.5652L8 13.6004L7.373 13.5652L6.75388 13.46L6.15044 13.2861L5.57025 13.0458L5.02062 12.742L4.50846 12.3786L4.0402 11.9602L3.62175 11.4919L3.25835 10.9798L2.95458 10.4301L2.71425 9.84995L2.54041 9.24651L2.43521 8.62739L2.4 8.00039L2.43521 7.37339L2.54041 6.75427L2.71425 6.15083L2.95458 5.57064L3.25835 5.02101L3.62175 4.50885L4.0402 4.04059L4.50846 3.62213L5.02062 3.25874L5.57025 2.95496L6.15044 2.71464L6.75388 2.54079L7.373 2.4356L8 2.40039Z" stroke="#414141" stroke-linecap="round" stroke-linejoin="round"/>
</svg>
