<svg width="16" height="16" viewBox="0 0 16 16" fill="none" xmlns="http://www.w3.org/2000/svg">
<path d="M4.99335 7.86089C4.91842 8.21744 4.68799 8.5218 4.36515 8.69065C4.01113 8.87581 3.58887 8.87581 3.23485 8.69065C2.912 8.5218 2.68157 8.21744 2.60664 7.86089L2.58066 7.73727C2.50354 7.37031 2.5863 6.98788 2.80823 6.68564L2.85031 6.62833C3.07229 6.32602 3.42494 6.14746 3.8 6.14746C4.17506 6.14746 4.52771 6.32602 4.74969 6.62833L4.79176 6.68564C5.0137 6.98788 5.09645 7.37031 5.01933 7.73727L4.99335 7.86089Z" fill="#C2CCDE" fill-opacity="0.25"/>
<path d="M1.6 11.2262C1.6 11.4324 1.76715 11.5996 1.97333 11.5996H4.26213C4.40929 10.9458 4.80967 10.3742 5.37502 10.0126C5.27326 9.94001 5.1613 9.87951 5.0408 9.83353L4.95643 9.80133C4.21167 9.51712 3.38833 9.51712 2.64356 9.80133L2.5592 9.83353C1.9816 10.0539 1.6 10.608 1.6 11.2262Z" fill="#C2CCDE" fill-opacity="0.25"/>
<path d="M14.0267 11.5996H11.7379C11.5907 10.9458 11.1904 10.3742 10.625 10.0126C10.7268 9.94005 10.8387 9.87955 10.9592 9.83357L11.0436 9.80138C11.7883 9.51717 12.6117 9.51717 13.3564 9.80138L13.4408 9.83357C14.0184 10.054 14.4 10.6081 14.4 11.2263C14.4 11.4325 14.2329 11.5996 14.0267 11.5996Z" fill="#C2CCDE" fill-opacity="0.25"/>
<path d="M11.0066 7.86093C11.0816 8.21748 11.312 8.52184 11.6348 8.6907C11.9889 8.87585 12.4111 8.87585 12.7652 8.6907C13.088 8.52184 13.3184 8.21748 13.3934 7.86093L13.4193 7.73731C13.4965 7.37036 13.4137 6.98792 13.1918 6.68568L13.1497 6.62838C12.9277 6.32607 12.5751 6.1475 12.2 6.1475C11.8249 6.1475 11.4723 6.32607 11.2503 6.62838L11.2082 6.68568C10.9863 6.98792 10.9035 7.37036 10.9807 7.73731L11.0066 7.86093Z" fill="#C2CCDE" fill-opacity="0.25"/>
<path d="M11.16 12.7996H4.84C4.48654 12.7996 4.2 12.5131 4.2 12.1596C4.2 11.1003 4.85526 10.1514 5.8459 9.77623L6.01221 9.71324C7.29301 9.22815 8.70699 9.22815 9.98779 9.71324L10.1541 9.77623C11.1447 10.1514 11.8 11.1003 11.8 12.1596C11.8 12.5131 11.5135 12.7996 11.16 12.7996Z" fill="#C2CCDE" fill-opacity="0.25"/>
<path d="M7.02826 7.81519C7.63749 8.13143 8.3625 8.13143 8.97173 7.81519C9.53207 7.52433 9.93265 6.99775 10.0634 6.38011L10.1044 6.1868C10.2386 5.55285 10.0948 4.89175 9.70942 4.37081L9.64336 4.28152C9.25787 3.76049 8.64814 3.45312 8 3.45312C7.35186 3.45312 6.74213 3.76049 6.35664 4.28153L6.29058 4.37081C5.90517 4.89175 5.76139 5.55285 5.89563 6.1868L5.93656 6.38011C6.06735 6.99775 6.46793 7.52433 7.02826 7.81519Z" fill="#C2CCDE" fill-opacity="0.25"/>
<path d="M4.99335 7.86089C4.91842 8.21744 4.68799 8.5218 4.36515 8.69065C4.01113 8.87581 3.58887 8.87581 3.23485 8.69065C2.912 8.5218 2.68157 8.21744 2.60664 7.86089L2.58066 7.73727C2.50354 7.37031 2.5863 6.98788 2.80823 6.68564L2.85031 6.62833C3.07229 6.32602 3.42494 6.14746 3.8 6.14746C4.17506 6.14746 4.52771 6.32602 4.74969 6.62833L4.79176 6.68564C5.0137 6.98788 5.09645 7.37031 5.01933 7.73727L4.99335 7.86089Z" stroke="#414141" stroke-linecap="round" stroke-linejoin="round"/>
<path d="M1.6 11.2262C1.6 11.4324 1.76715 11.5996 1.97333 11.5996H4.26213C4.40929 10.9458 4.80967 10.3742 5.37502 10.0126C5.27326 9.94001 5.1613 9.87951 5.0408 9.83353L4.95643 9.80133C4.21167 9.51712 3.38833 9.51712 2.64356 9.80133L2.5592 9.83353C1.9816 10.0539 1.6 10.608 1.6 11.2262Z" stroke="#414141" stroke-linecap="round" stroke-linejoin="round"/>
<path d="M14.0267 11.5996H11.7379C11.5907 10.9458 11.1904 10.3742 10.625 10.0126C10.7268 9.94005 10.8387 9.87955 10.9592 9.83357L11.0436 9.80138C11.7883 9.51717 12.6117 9.51717 13.3564 9.80138L13.4408 9.83357C14.0184 10.054 14.4 10.6081 14.4 11.2263C14.4 11.4325 14.2329 11.5996 14.0267 11.5996Z" stroke="#414141" stroke-linecap="round" stroke-linejoin="round"/>
<path d="M11.0066 7.86093C11.0816 8.21748 11.312 8.52184 11.6348 8.6907C11.9889 8.87585 12.4111 8.87585 12.7652 8.6907C13.088 8.52184 13.3184 8.21748 13.3934 7.86093L13.4193 7.73731C13.4965 7.37036 13.4137 6.98792 13.1918 6.68568L13.1497 6.62838C12.9277 6.32607 12.5751 6.1475 12.2 6.1475C11.8249 6.1475 11.4723 6.32607 11.2503 6.62838L11.2082 6.68568C10.9863 6.98792 10.9035 7.37036 10.9807 7.73731L11.0066 7.86093Z" stroke="#414141" stroke-linecap="round" stroke-linejoin="round"/>
<path d="M11.16 12.7996H4.84C4.48654 12.7996 4.2 12.5131 4.2 12.1596C4.2 11.1003 4.85526 10.1514 5.8459 9.77623L6.01221 9.71324C7.29301 9.22815 8.70699 9.22815 9.98779 9.71324L10.1541 9.77623C11.1447 10.1514 11.8 11.1003 11.8 12.1596C11.8 12.5131 11.5135 12.7996 11.16 12.7996Z" stroke="#414141" stroke-linecap="round" stroke-linejoin="round"/>
<path d="M7.02826 7.81519C7.63749 8.13143 8.3625 8.13143 8.97173 7.81519C9.53207 7.52433 9.93265 6.99775 10.0634 6.38011L10.1044 6.1868C10.2386 5.55285 10.0948 4.89175 9.70942 4.37081L9.64336 4.28152C9.25787 3.76049 8.64814 3.45312 8 3.45312C7.35186 3.45312 6.74213 3.76049 6.35664 4.28153L6.29058 4.37081C5.90517 4.89175 5.76139 5.55285 5.89563 6.1868L5.93656 6.38011C6.06735 6.99775 6.46793 7.52433 7.02826 7.81519Z" stroke="#414141" stroke-linecap="round" stroke-linejoin="round"/>
</svg>
