<svg width="16" height="16" viewBox="0 0 16 16" fill="none" xmlns="http://www.w3.org/2000/svg">
<path d="M6.21057 13.9999C5.17503 13.6907 4.23718 13.1187 3.48831 12.3395C3.72926 12.0537 3.87946 11.7026 3.91969 11.331C3.95992 10.9593 3.88836 10.5842 3.71416 10.2534C3.53996 9.92272 3.27104 9.6515 2.94182 9.47448C2.6126 9.29746 2.23805 9.2227 1.8661 9.25975C1.78136 8.84468 1.73878 8.42212 1.739 7.99849C1.739 7.34422 1.83918 6.71311 2.02575 6.1202H2.05205C2.37128 6.1203 2.68527 6.03904 2.96438 5.88408C3.24348 5.72913 3.47848 5.50559 3.64719 5.23459C3.81591 4.96358 3.91277 4.65404 3.92862 4.3352C3.94448 4.01637 3.87881 3.69875 3.73781 3.41234C4.47178 2.7289 5.35942 2.23209 6.32578 1.96387C6.48304 2.27266 6.72267 2.53192 7.01815 2.71297C7.31362 2.89403 7.65342 2.98981 7.99995 2.98972C8.34649 2.98981 8.68629 2.89403 8.98176 2.71297C9.27724 2.53192 9.51686 2.27266 9.67413 1.96387C10.6405 2.23209 11.5281 2.7289 12.2621 3.41234C12.1201 3.70075 12.0545 4.02079 12.0715 4.34182C12.0886 4.66286 12.1878 4.97414 12.3596 5.24587C12.5314 5.5176 12.77 5.74068 13.0527 5.89377C13.3354 6.04686 13.6527 6.12482 13.9742 6.1202C14.1648 6.72805 14.2615 7.36144 14.2609 7.99849C14.2609 8.43049 14.2171 8.85248 14.1338 9.26007C13.7619 9.22301 13.3873 9.29777 13.0581 9.47479C12.7289 9.65181 12.46 9.92303 12.2858 10.2538C12.1115 10.5845 12.04 10.9596 12.0802 11.3313C12.1205 11.7029 12.2707 12.0541 12.5116 12.3398C11.7627 13.1189 10.8248 13.6908 9.78933 13.9999C9.66773 13.6209 9.42893 13.2903 9.10734 13.0557C8.78575 12.8212 8.39799 12.6948 7.99995 12.6948C7.60192 12.6948 7.21416 12.8212 6.89257 13.0557C6.57098 13.2903 6.33218 13.6209 6.21057 13.9999Z" stroke="#414141" stroke-linejoin="round"/>
<path d="M7.99997 10.1893C8.28774 10.1893 8.57269 10.1326 8.83856 10.0225C9.10442 9.91238 9.34599 9.75096 9.54948 9.54748C9.75296 9.344 9.91438 9.10243 10.0245 8.83656C10.1346 8.5707 10.1913 8.28574 10.1913 7.99797C10.1913 7.7102 10.1346 7.42525 10.0245 7.15939C9.91438 6.89352 9.75296 6.65195 9.54948 6.44847C9.34599 6.24498 9.10442 6.08357 8.83856 5.97345C8.57269 5.86332 8.28774 5.80664 7.99997 5.80664C7.41879 5.80664 6.86142 6.03751 6.45047 6.44847C6.03951 6.85942 5.80864 7.4168 5.80864 7.99797C5.80864 8.57915 6.03951 9.13653 6.45047 9.54748C6.86142 9.95843 7.41879 10.1893 7.99997 10.1893Z" stroke="#414141" stroke-linejoin="round"/>
</svg>
