<svg width="16" height="16" viewBox="0 0 16 16" fill="none" xmlns="http://www.w3.org/2000/svg">
<path d="M8 13.1998C10.8719 13.1998 13.2 10.8717 13.2 7.9998C13.2 5.12792 10.8719 2.7998 8 2.7998C5.12812 2.7998 2.8 5.12792 2.8 7.9998C2.8 9.31172 3.28583 10.5102 4.08739 11.425L3.2 13.1998L8 13.1998Z" fill="#C2CCDE" fill-opacity="0.25"/>
<path d="M7.9 4.7998V9.2798M7.9 10.7198V11.0398M13.2 7.9998C13.2 10.8717 10.8719 13.1998 8 13.1998L3.2 13.1998L4.08739 11.425C3.28583 10.5102 2.8 9.31172 2.8 7.9998C2.8 5.12792 5.12812 2.7998 8 2.7998C10.8719 2.7998 13.2 5.12792 13.2 7.9998Z" stroke="#414141" stroke-linecap="round" stroke-linejoin="round"/>
</svg>
