<svg width="16" height="16" viewBox="0 0 16 16" fill="none" xmlns="http://www.w3.org/2000/svg">
<path d="M3.6 3.20039C3.6 2.75856 3.95817 2.40039 4.4 2.40039H11.6C12.0418 2.40039 12.4 2.75856 12.4 3.20039V12.8004C12.4 13.2422 12.0418 13.6004 11.6 13.6004H4.4C3.95817 13.6004 3.6 13.2422 3.6 12.8004V3.20039Z" fill="#C2CCDE" fill-opacity="0.25"/>
<path d="M5.6 4.80039H10.4M5.6 6.40039H8.8M5.6 8.00039H10.4M5.6 9.60039H8.8M5.6 11.2004H10.4M4.4 13.6004H11.6C12.0418 13.6004 12.4 13.2422 12.4 12.8004V3.20039C12.4 2.75856 12.0418 2.40039 11.6 2.40039H4.4C3.95817 2.40039 3.6 2.75856 3.6 3.20039V12.8004C3.6 13.2422 3.95817 13.6004 4.4 13.6004Z" stroke="#414141" stroke-linecap="round" stroke-linejoin="round"/>
</svg>
