<svg width="16" height="16" viewBox="0 0 16 16" fill="none" xmlns="http://www.w3.org/2000/svg">
<path d="M4.00001 14.0005H12C12.4418 14.0005 12.8 13.6423 12.8 13.2005C12.8 11.8772 11.979 10.6928 10.7399 10.2284L10.4939 10.1362C8.88592 9.5335 7.11408 9.5335 5.50608 10.1362L5.26006 10.2284C4.02096 10.6928 3.2 11.8772 3.2 13.2005C3.2 13.6423 3.55818 14.0005 4.00001 14.0005Z" fill="#C2CCDE" fill-opacity="0.25"/>
<path d="M9.21971 7.77394C8.45412 8.16721 7.54588 8.16721 6.78029 7.77394C6.06778 7.40794 5.55729 6.74132 5.38969 5.95804L5.34495 5.74899C5.17356 4.94799 5.35664 4.112 5.84712 3.45596L5.91894 3.35989C6.40949 2.70375 7.18076 2.31738 8 2.31738C8.81925 2.31738 9.59051 2.70375 10.0811 3.35989L10.1529 3.45596C10.6434 4.11201 10.8264 4.94799 10.6551 5.74899L10.6103 5.95804C10.4427 6.74132 9.93222 7.40794 9.21971 7.77394Z" fill="#C2CCDE" fill-opacity="0.25"/>
<path d="M4.00001 14.0005H12C12.4418 14.0005 12.8 13.6423 12.8 13.2005C12.8 11.8772 11.979 10.6928 10.7399 10.2284L10.4939 10.1362C8.88592 9.5335 7.11408 9.5335 5.50608 10.1362L5.26006 10.2284C4.02096 10.6928 3.2 11.8772 3.2 13.2005C3.2 13.6423 3.55818 14.0005 4.00001 14.0005Z" stroke="#414141" stroke-linecap="round" stroke-linejoin="round"/>
<path d="M9.21971 7.77394C8.45412 8.16721 7.54588 8.16721 6.78029 7.77394C6.06778 7.40794 5.55729 6.74132 5.38969 5.95804L5.34495 5.74899C5.17356 4.94799 5.35664 4.112 5.84712 3.45596L5.91894 3.35989C6.40949 2.70375 7.18076 2.31738 8 2.31738C8.81925 2.31738 9.59051 2.70375 10.0811 3.35989L10.1529 3.45596C10.6434 4.11201 10.8264 4.94799 10.6551 5.74899L10.6103 5.95804C10.4427 6.74132 9.93222 7.40794 9.21971 7.77394Z" stroke="#414141" stroke-linecap="round" stroke-linejoin="round"/>
</svg>
