<svg width="24" height="25" viewBox="0 0 24 25" fill="none" xmlns="http://www.w3.org/2000/svg">
<path d="M9.14426 3C6.48724 3.06075 4.93529 3.31456 3.87493 4.37493C2.81456 5.43529 2.56075 6.98724 2.5 9.64426M14.8557 3C17.5128 3.06075 19.0647 3.31456 20.1251 4.37493C21.1854 5.43529 21.4392 6.98724 21.5 9.64426M14.8557 22C17.5128 21.9392 19.0647 21.6854 20.1251 20.6251C21.1854 19.5647 21.4392 18.0128 21.5 15.3557M9.14426 22C6.48724 21.9392 4.93529 21.6854 3.87493 20.6251C2.81456 19.5647 2.56075 18.0128 2.5 15.3557" stroke="white" stroke-width="1.5" stroke-linecap="round" stroke-linejoin="round"/>
<path d="M7.99976 8.5H8.00874" stroke="white" stroke-width="2" stroke-linecap="round" stroke-linejoin="round"/>
<path d="M15.9998 16.5H16.0088" stroke="white" stroke-width="2" stroke-linecap="round" stroke-linejoin="round"/>
<path d="M8 16.5L16 8.5" stroke="white" stroke-width="1.5" stroke-linecap="round"/>
</svg>
