<svg width="224" height="224" viewBox="0 0 224 224" fill="none" xmlns="http://www.w3.org/2000/svg">
<circle opacity="0.1" cx="112" cy="112" r="112" fill="#0F69DB"/>
<circle opacity="0.15" cx="112" cy="112" r="77.1391" fill="#0F69DB"/>
<circle opacity="0.25" cx="112" cy="112" r="36.3444" fill="#0F69DB"/>
<path d="M114.917 108.5C114.917 110.111 113.611 111.417 112 111.417C110.389 111.417 109.083 110.111 109.083 108.5C109.083 106.889 110.389 105.583 112 105.583C113.611 105.583 114.917 106.889 114.917 108.5Z" stroke="#163051" stroke-width="2"/>
<path d="M113.467 118.409C113.073 118.788 112.548 119 112 119C111.453 119 110.927 118.788 110.533 118.409C106.93 114.918 102.101 111.017 104.456 105.355C105.729 102.293 108.786 100.333 112 100.333C115.215 100.333 118.271 102.293 119.544 105.355C121.896 111.01 117.079 114.93 113.467 118.409Z" stroke="#163051" stroke-width="2"/>
<path d="M119 121.333C119 122.622 115.866 123.667 112 123.667C108.134 123.667 105 122.622 105 121.333" stroke="#163051" stroke-width="2" stroke-linecap="round"/>
</svg>
