<svg width="24" height="24" viewBox="0 0 24 24" fill="none" xmlns="http://www.w3.org/2000/svg">
<path d="M9.34845 5.59845C11.0463 4.89519 12.9539 4.89519 14.6517 5.59845C16.3496 6.30171 17.6985 7.65062 18.4017 9.34845C19.105 11.0463 19.105 12.9539 18.4017 14.6517C17.6985 16.3496 16.3496 17.6985 14.6517 18.4017C12.9539 19.105 11.0463 19.105 9.34845 18.4017C7.65062 17.6985 6.30171 16.3496 5.59845 14.6517C4.89519 12.9539 4.89519 11.0463 5.59845 9.34845C6.30171 7.65062 7.65062 6.30171 9.34845 5.59845Z" stroke="black" stroke-width="1.5" stroke-linecap="round" stroke-linejoin="round"/>
<path d="M12.0025 7.01115L12.0001 3.6001L11.9977 7.01115C11.9993 7.01115 12.0009 7.01115 12.0025 7.01115Z" stroke="black" stroke-width="1.5" stroke-linecap="round" stroke-linejoin="round"/>
<path d="M16.989 11.9977C16.989 11.9993 16.989 12.0009 16.989 12.0025L20.4001 12.0001L16.989 11.9977Z" stroke="black" stroke-width="1.5" stroke-linecap="round" stroke-linejoin="round"/>
<path d="M12.0025 16.989C12.0009 16.989 11.9993 16.989 11.9977 16.989L12.0001 20.4001L12.0025 16.989Z" stroke="black" stroke-width="1.5" stroke-linecap="round" stroke-linejoin="round"/>
<path d="M7.01115 12.0025C7.01115 12.0009 7.01115 11.9993 7.01115 11.9977L3.6001 12.0001L7.01115 12.0025Z" stroke="black" stroke-width="1.5" stroke-linecap="round" stroke-linejoin="round"/>
<path d="M10.9394 9.43944C11.6186 9.15813 12.3816 9.15813 13.0608 9.43944C13.7399 9.72074 14.2795 10.2603 14.5608 10.9394C14.8421 11.6186 14.8421 12.3816 14.5608 13.0608C14.2795 13.7399 13.7399 14.2795 13.0608 14.5608C12.3816 14.8421 11.6186 14.8421 10.9394 14.5608C10.2603 14.2795 9.72074 13.7399 9.43944 13.0608C9.15813 12.3816 9.15813 11.6186 9.43944 10.9394C9.72074 10.2603 10.2603 9.72074 10.9394 9.43944Z" stroke="black" stroke-width="1.5" stroke-linecap="round" stroke-linejoin="round"/>
</svg>
