<svg width="20" height="20" viewBox="0 0 20 20" fill="none" xmlns="http://www.w3.org/2000/svg">
<path d="M2.10828 12.3078C1.93107 13.4695 2.72334 14.2758 3.69339 14.6777C7.41235 16.2183 12.5877 16.2183 16.3066 14.6777C17.2767 14.2758 18.0689 13.4695 17.8918 12.3078C17.7828 11.5939 17.2443 10.9994 16.8453 10.4189C16.3228 9.64925 16.2708 8.80967 16.2708 7.9165C16.2708 4.46472 13.4633 1.6665 10 1.6665C6.53679 1.6665 3.72929 4.46472 3.72929 7.9165C3.7292 8.80967 3.67728 9.64925 3.15469 10.4189C2.75571 10.9994 2.21719 11.5939 2.10828 12.3078Z" stroke="#2E2F31" stroke-width="1.5" stroke-linecap="round" stroke-linejoin="round"/>
<path d="M6.66666 15.8335C7.04873 17.2712 8.39624 18.3335 9.99999 18.3335C11.6037 18.3335 12.9512 17.2712 13.3333 15.8335" stroke="#2E2F31" stroke-width="1.5" stroke-linecap="round" stroke-linejoin="round"/>
</svg>
