<svg width="24" height="25" viewBox="0 0 24 25" fill="none" xmlns="http://www.w3.org/2000/svg">
<path d="M14 2.70004C13.3538 2.56886 12.6849 2.5 12 2.5C6.47715 2.5 2 6.97715 2 12.5C2 18.0228 6.47715 22.5 12 22.5C17.5228 22.5 22 18.0228 22 12.5C22 11.8151 21.9311 11.1462 21.8 10.5" stroke="white" stroke-width="1.5" stroke-linecap="round"/>
<path d="M12 9.5C10.8954 9.5 10 10.1716 10 11C10 11.8284 10.8954 12.5 12 12.5C13.1046 12.5 14 13.1716 14 14C14 14.8284 13.1046 15.5 12 15.5M12 9.5C12.8708 9.5 13.6116 9.9174 13.8862 10.5M12 9.5V8.5M12 15.5C11.1292 15.5 10.3884 15.0826 10.1138 14.5M12 15.5V16.5" stroke="white" stroke-width="1.5" stroke-linecap="round"/>
<path d="M16.998 7.50195L21.1739 3.32375M21.998 6.98019L21.8798 3.8887C21.8798 3.16006 21.4448 2.70607 20.6523 2.64881L17.5282 2.50195" stroke="white" stroke-width="1.5" stroke-linecap="round" stroke-linejoin="round"/>
</svg>
