<svg width="24" height="24" viewBox="0 0 24 24" fill="none" xmlns="http://www.w3.org/2000/svg">
<g clip-path="url(#clip0_1_2986)">
<path d="M11.9997 1.3335C9.89001 1.3335 7.82772 1.95909 6.0736 3.13115C4.31947 4.30322 2.9523 5.96913 2.14496 7.91821C1.33763 9.86728 1.12639 12.012 1.53797 14.0811C1.94955 16.1503 2.96545 18.0509 4.45721 19.5426C5.94897 21.0344 7.84959 22.0503 9.91872 22.4619C11.9878 22.8734 14.1326 22.6622 16.0816 21.8549C18.0307 21.0475 19.6966 19.6804 20.8687 17.9262C22.0408 16.1721 22.6663 14.1098 22.6663 12.0002C22.6663 9.17119 21.5425 6.45808 19.5422 4.45769C17.5418 2.4573 14.8287 1.3335 11.9997 1.3335ZM12.0397 13.1202C11.9271 13.121 11.8154 13.0996 11.7111 13.0571C11.6068 13.0146 11.5119 12.9519 11.432 12.8726C11.352 12.7933 11.2886 12.6989 11.2453 12.5949C11.202 12.491 11.1797 12.3795 11.1797 12.2668V5.76683C11.1797 5.53874 11.2703 5.32 11.4316 5.15872C11.5928 4.99744 11.8116 4.90683 12.0397 4.90683C12.2678 4.90683 12.4865 4.99744 12.6478 5.15872C12.8091 5.32 12.8997 5.53874 12.8997 5.76683V12.2668C12.8997 12.3795 12.8774 12.491 12.8341 12.5949C12.7908 12.6989 12.7273 12.7933 12.6474 12.8726C12.5674 12.9519 12.4726 13.0146 12.3683 13.0571C12.264 13.0996 12.1523 13.121 12.0397 13.1202ZM11.9997 18.5268C10.5955 18.5434 9.22285 18.1109 8.08193 17.2922C6.941 16.4736 6.09155 15.3118 5.65756 13.9763C5.22356 12.6408 5.22774 11.2016 5.66946 9.86866C6.11119 8.53571 6.96736 7.37883 8.11301 6.56683C8.31256 6.4246 8.56004 6.36655 8.80202 6.40521C9.044 6.44388 9.26106 6.57616 9.40635 6.7735C9.47727 6.87095 9.52821 6.98147 9.55622 7.0987C9.58423 7.21593 9.58876 7.33754 9.56954 7.45653C9.55033 7.57552 9.50776 7.68953 9.44428 7.79198C9.3808 7.89444 9.29767 7.98332 9.19968 8.0535C8.54071 8.53745 8.01668 9.18213 7.67755 9.92607C7.33842 10.67 7.1955 11.4884 7.26241 12.3033C7.32932 13.1181 7.60384 13.9022 8.05978 14.5809C8.51573 15.2595 9.13791 15.8101 9.867 16.1801C10.5961 16.55 11.4078 16.7271 12.2247 16.6943C13.0417 16.6616 13.8366 16.4201 14.5338 15.993C15.2309 15.5659 15.807 14.9673 16.2072 14.2543C16.6073 13.5413 16.8182 12.7378 16.8197 11.9202C16.8174 11.1669 16.6347 10.4251 16.2867 9.75693C15.9387 9.0888 15.4357 8.51382 14.8197 8.08016C14.63 7.93048 14.5074 7.71174 14.4786 7.47183C14.4499 7.23193 14.5174 6.99041 14.6663 6.80016C14.8136 6.60492 15.0316 6.47528 15.2735 6.43913C15.5154 6.40297 15.7618 6.46319 15.9597 6.60683C17.0934 7.42813 17.9359 8.58927 18.365 9.9218C18.7942 11.2543 18.7876 12.6889 18.3462 14.0175C17.9048 15.346 17.0517 16.4993 15.9105 17.3102C14.7693 18.121 13.3995 18.5472 11.9997 18.5268Z" fill="#A80000"/>
</g>
<defs>
<clipPath id="clip0_1_2986">
<rect width="24" height="24" fill="white"/>
</clipPath>
</defs>
</svg>
