<svg width="24" height="24" viewBox="0 0 24 24" fill="none" xmlns="http://www.w3.org/2000/svg">
<path d="M15.0001 7.49964L15.0001 12.8991L15.0001 15.2995C15.0001 15.9624 14.4627 16.4996 13.7999 16.4995L11.343 16.4991L9.0001 16.4993L9.0001 18.8995C9.0001 19.5624 9.53749 20.0996 10.2003 20.0995L17.4 20.0996C18.0628 20.0997 18.6001 19.5624 18.6001 18.8996L18.6001 8.69964C18.6001 8.03689 18.0628 7.49964 17.4001 7.49964L15.0001 7.49964Z" fill="#C2CCDE" fill-opacity="0.25"/>
<path d="M13.8001 3.89965C14.4628 3.89965 15.0001 4.43691 15.0001 5.09965L15.0001 12.8991L15.0001 15.2995C15.0001 15.9624 14.4627 16.4996 13.7999 16.4995L11.343 16.4991L6.60023 16.4996C5.93744 16.4997 5.4001 15.9624 5.4001 15.2996L5.4001 5.09965C5.4001 4.43691 5.93736 3.89965 6.6001 3.89965L13.8001 3.89965Z" fill="#C2CCDE" fill-opacity="0.25"/>
<path d="M15.0001 12.8991L15.0001 7.49963L17.4001 7.49964C18.0628 7.49964 18.6001 8.03689 18.6001 8.69964L18.6001 18.8996C18.6001 19.5624 18.0628 20.0997 17.4 20.0996L10.2003 20.0995C9.53749 20.0996 9.0001 19.5624 9.0001 18.8995L9.0001 16.4993L11.343 16.4991M15.0001 12.8991L15.0001 15.2995C15.0001 15.9624 14.4627 16.4996 13.7999 16.4995L11.343 16.4991M15.0001 12.8991L15.0001 5.09965C15.0001 4.43691 14.4628 3.89965 13.8001 3.89965L6.6001 3.89965C5.93736 3.89965 5.4001 4.43691 5.4001 5.09965L5.4001 15.2996C5.4001 15.9624 5.93744 16.4997 6.60023 16.4996L11.343 16.4991" stroke="#414141" stroke-linecap="round" stroke-linejoin="round"/>
</svg>
