<svg width="20" height="20" viewBox="0 0 20 20" fill="none" xmlns="http://www.w3.org/2000/svg">
<path d="M14.3697 0.000244141H4.7899C2.14587 0.000244141 0 2.13654 0 4.77098V10.4997V11.4577C0 14.0921 2.14587 16.2284 4.7899 16.2284H6.22686C6.48552 16.2284 6.83039 16.4008 6.99325 16.6116L8.43022 18.518C9.06248 19.361 10.0971 19.361 10.7294 18.518L12.1663 16.6116C12.3484 16.3721 12.6357 16.2284 12.9327 16.2284H14.3697C17.0137 16.2284 19.1596 14.0921 19.1596 11.4577V4.77098C19.1596 2.13654 17.0137 0.000244141 14.3697 0.000244141ZM5.74788 9.58003C5.21141 9.58003 4.7899 9.14894 4.7899 8.62206C4.7899 8.09517 5.22099 7.66408 5.74788 7.66408C6.27476 7.66408 6.70585 8.09517 6.70585 8.62206C6.70585 9.14894 6.28434 9.58003 5.74788 9.58003ZM9.57979 9.58003C9.04332 9.58003 8.62181 9.14894 8.62181 8.62206C8.62181 8.09517 9.0529 7.66408 9.57979 7.66408C10.1067 7.66408 10.5378 8.09517 10.5378 8.62206C10.5378 9.14894 10.1163 9.58003 9.57979 9.58003ZM13.4117 9.58003C12.8752 9.58003 12.4537 9.14894 12.4537 8.62206C12.4537 8.09517 12.8848 7.66408 13.4117 7.66408C13.9386 7.66408 14.3697 8.09517 14.3697 8.62206C14.3697 9.14894 13.9482 9.58003 13.4117 9.58003Z" fill="#0F69DB"/>
</svg>
